<?xml version="1.0" encoding="UTF-8" standalone="no"?>
<!DOCTYPE svg PUBLIC "-//W3C//DTD SVG 1.1//EN"
 "http://www.w3.org/Graphics/SVG/1.1/DTD/svg11.dtd">
<!-- Generated by graphviz version 2.47.0 (20210316.0004)
 -->
<!-- Title: dependencies Pages: 1 -->
<svg width="612pt" height="355pt"
 viewBox="0.00 0.00 612.00 355.00" xmlns="http://www.w3.org/2000/svg" xmlns:xlink="http://www.w3.org/1999/xlink">
<g id="graph0" class="graph" transform="scale(1 1) rotate(0) translate(4 351)">
<title>dependencies</title>
<polygon fill="white" stroke="transparent" points="-4,4 -4,-351 608,-351 608,4 -4,4"/>
<text text-anchor="start" x="281.01" y="-42.4" font-family="Times-12" font-weight="bold" font-size="14.00">Legend</text>
<polygon fill="#ffffb3" stroke="transparent" points="68,-10 68,-30 88,-30 88,-10 68,-10"/>
<text text-anchor="start" x="91.63" y="-15.4" font-family="Times-12" font-size="14.00"> &#160;Declarations</text>
<polygon fill="#8dd3c7" stroke="transparent" points="181,-10 181,-30 201,-30 201,-10 181,-10"/>
<text text-anchor="start" x="204.73" y="-15.4" font-family="Times-12" font-size="14.00"> &#160;Module</text>
<polygon fill="#80b1d3" stroke="transparent" points="267,-10 267,-30 287,-30 287,-10 267,-10"/>
<text text-anchor="start" x="290.78" y="-15.4" font-family="Times-12" font-size="14.00"> &#160;Bootstrap</text>
<polygon fill="#fdb462" stroke="transparent" points="364,-10 364,-30 384,-30 384,-10 364,-10"/>
<text text-anchor="start" x="387.67" y="-15.4" font-family="Times-12" font-size="14.00"> &#160;Providers</text>
<polygon fill="#fb8072" stroke="transparent" points="460,-10 460,-30 480,-30 480,-10 460,-10"/>
<text text-anchor="start" x="483.73" y="-15.4" font-family="Times-12" font-size="14.00"> &#160;Exports</text>
<g id="clust19" class="cluster">
<title>cluster_UsersModule</title>
<polygon fill="none" stroke="black" stroke-dasharray="1,5" points="8,-70 8,-282 164,-282 164,-70 8,-70"/>
</g>
<g id="clust24" class="cluster">
<title>cluster_UsersModule_providers</title>
<polygon fill="none" stroke="black" points="16,-78 16,-130 156,-130 156,-78 16,-78"/>
</g>
<g id="clust22" class="cluster">
<title>cluster_UsersModule_exports</title>
<polygon fill="none" stroke="black" points="34,-222 34,-274 144,-274 144,-222 34,-222"/>
</g>
<g id="clust1" class="cluster">
<title>cluster_AppModule</title>
<polygon fill="none" stroke="black" stroke-dasharray="1,5" points="176,-214 176,-339 541,-339 541,-214 176,-214"/>
</g>
<g id="clust6" class="cluster">
<title>cluster_AppModule_providers</title>
<polygon fill="none" stroke="black" points="403,-222 403,-274 533,-274 533,-222 403,-222"/>
</g>
<g id="clust3" class="cluster">
<title>cluster_AppModule_imports</title>
<polygon fill="none" stroke="black" points="184,-222 184,-274 395,-274 395,-222 184,-222"/>
</g>
<g id="clust7" class="cluster">
<title>cluster_AuthModule</title>
<polygon fill="none" stroke="black" stroke-dasharray="1,5" points="172,-138 172,-206 436,-206 436,-138 172,-138"/>
</g>
<g id="clust12" class="cluster">
<title>cluster_AuthModule_providers</title>
<polygon fill="none" stroke="black" points="294,-146 294,-198 428,-198 428,-146 294,-146"/>
</g>
<g id="clust10" class="cluster">
<title>cluster_AuthModule_exports</title>
<polygon fill="none" stroke="black" points="180,-146 180,-198 286,-198 286,-146 180,-146"/>
</g>
<g id="clust13" class="cluster">
<title>cluster_PostsModule</title>
<polygon fill="none" stroke="black" stroke-dasharray="1,5" points="444,-138 444,-206 596,-206 596,-138 444,-138"/>
</g>
<g id="clust18" class="cluster">
<title>cluster_PostsModule_providers</title>
<polygon fill="none" stroke="black" points="452,-146 452,-198 588,-198 588,-146 452,-146"/>
</g>
<!-- AuthModule -->
<g id="node1" class="node">
<title>AuthModule</title>
<polygon fill="#8dd3c7" stroke="black" points="386.55,-266 383.55,-270 362.55,-270 359.55,-266 299.45,-266 299.45,-230 386.55,-230 386.55,-266"/>
<text text-anchor="middle" x="343" y="-243.8" font-family="Times,serif" font-size="14.00">AuthModule</text>
</g>
<!-- AppModule -->
<g id="node4" class="node">
<title>AppModule</title>
<polygon fill="#8dd3c7" stroke="black" points="331.66,-331 328.66,-335 307.66,-335 304.66,-331 248.34,-331 248.34,-295 331.66,-295 331.66,-331"/>
<text text-anchor="middle" x="290" y="-308.8" font-family="Times,serif" font-size="14.00">AppModule</text>
</g>
<!-- AuthModule&#45;&gt;AppModule -->
<g id="edge1" class="edge">
<title>AuthModule&#45;&gt;AppModule</title>
<path fill="none" stroke="black" d="M315.53,-266.11C315.53,-266.11 315.53,-284.99 315.53,-284.99"/>
<polygon fill="black" stroke="black" points="312.03,-284.99 315.53,-294.99 319.03,-284.99 312.03,-284.99"/>
</g>
<!-- AuthService  -->
<g id="node6" class="node">
<title>AuthService </title>
<polygon fill="#fb8072" stroke="black" points="277.98,-190 188.02,-190 188.02,-154 277.98,-154 277.98,-190"/>
<text text-anchor="middle" x="233" y="-167.8" font-family="Times,serif" font-size="14.00">AuthService </text>
</g>
<!-- AuthModule&#45;&gt;AuthService  -->
<g id="edge5" class="edge">
<title>AuthModule&#45;&gt;AuthService </title>
<path fill="none" stroke="black" stroke-dasharray="5,2" d="M299.08,-248C293.89,-248 290.39,-248 290.39,-248 290.39,-248 290.39,-172 290.39,-172 290.39,-172 287.94,-172 287.94,-172"/>
<polygon fill="black" stroke="black" points="287.94,-168.5 277.94,-172 287.94,-175.5 287.94,-168.5"/>
</g>
<!-- PostsModule -->
<g id="node2" class="node">
<title>PostsModule</title>
<polygon fill="#8dd3c7" stroke="black" points="281.61,-266 278.61,-270 257.61,-270 254.61,-266 192.39,-266 192.39,-230 281.61,-230 281.61,-266"/>
<text text-anchor="middle" x="237" y="-243.8" font-family="Times,serif" font-size="14.00">PostsModule</text>
</g>
<!-- PostsModule&#45;&gt;AppModule -->
<g id="edge2" class="edge">
<title>PostsModule&#45;&gt;AppModule</title>
<path fill="none" stroke="black" d="M264.86,-266.11C264.86,-266.11 264.86,-284.99 264.86,-284.99"/>
<polygon fill="black" stroke="black" points="261.36,-284.99 264.86,-294.99 268.36,-284.99 261.36,-284.99"/>
</g>
<!-- UsersModule -->
<g id="node3" class="node">
<title>UsersModule</title>
<polygon fill="#8dd3c7" stroke="black" points="138.92,-190 135.92,-194 114.92,-194 111.92,-190 47.08,-190 47.08,-154 138.92,-154 138.92,-190"/>
<text text-anchor="middle" x="93" y="-167.8" font-family="Times,serif" font-size="14.00">UsersModule</text>
</g>
<!-- UsersModule&#45;&gt;PostsModule -->
<g id="edge7" class="edge">
<title>UsersModule&#45;&gt;PostsModule</title>
<path fill="none" stroke="black" d="M138.94,-166C142.58,-166 144.89,-166 144.89,-166 144.89,-166 144.89,-248 144.89,-248 144.89,-248 182.29,-248 182.29,-248"/>
<polygon fill="black" stroke="black" points="182.29,-251.5 192.29,-248 182.29,-244.5 182.29,-251.5"/>
</g>
<!-- UsersModule&#45;&gt;AppModule -->
<g id="edge3" class="edge">
<title>UsersModule&#45;&gt;AppModule</title>
<path fill="none" stroke="black" d="M138.89,-178C140.72,-178 141.8,-178 141.8,-178 141.8,-178 141.8,-313 141.8,-313 141.8,-313 238.32,-313 238.32,-313"/>
<polygon fill="black" stroke="black" points="238.32,-316.5 248.32,-313 238.32,-309.5 238.32,-316.5"/>
</g>
<!-- UsersService  -->
<g id="node9" class="node">
<title>UsersService </title>
<polygon fill="#fb8072" stroke="black" points="135.85,-266 42.15,-266 42.15,-230 135.85,-230 135.85,-266"/>
<text text-anchor="middle" x="89" y="-243.8" font-family="Times,serif" font-size="14.00">UsersService </text>
</g>
<!-- UsersModule&#45;&gt;UsersService  -->
<g id="edge9" class="edge">
<title>UsersModule&#45;&gt;UsersService </title>
<path fill="none" stroke="black" stroke-dasharray="5,2" d="M91.48,-190.01C91.48,-190.01 91.48,-219.85 91.48,-219.85"/>
<polygon fill="black" stroke="black" points="87.98,-219.85 91.48,-229.85 94.98,-219.85 87.98,-219.85"/>
</g>
<!-- AppService -->
<g id="node5" class="node">
<title>AppService</title>
<ellipse fill="#fdb462" stroke="black" cx="468" cy="-248" rx="56.74" ry="18"/>
<text text-anchor="middle" x="468" y="-243.8" font-family="Times,serif" font-size="14.00">AppService</text>
</g>
<!-- AppService&#45;&gt;AppModule -->
<g id="edge4" class="edge">
<title>AppService&#45;&gt;AppModule</title>
<path fill="none" stroke="black" d="M468,-266.11C468,-285.34 468,-313 468,-313 468,-313 341.73,-313 341.73,-313"/>
<polygon fill="black" stroke="black" points="341.73,-309.5 331.73,-313 341.73,-316.5 341.73,-309.5"/>
</g>
<!-- AuthService -->
<g id="node7" class="node">
<title>AuthService</title>
<ellipse fill="#fdb462" stroke="black" cx="361" cy="-172" rx="59.11" ry="18"/>
<text text-anchor="middle" x="361" y="-167.8" font-family="Times,serif" font-size="14.00">AuthService</text>
</g>
<!-- AuthService&#45;&gt;AuthModule -->
<g id="edge6" class="edge">
<title>AuthService&#45;&gt;AuthModule</title>
<path fill="none" stroke="black" d="M344.23,-189.63C344.23,-189.63 344.23,-219.94 344.23,-219.94"/>
<polygon fill="black" stroke="black" points="340.73,-219.94 344.23,-229.94 347.73,-219.94 340.73,-219.94"/>
</g>
<!-- PostsService -->
<g id="node8" class="node">
<title>PostsService</title>
<ellipse fill="#fdb462" stroke="black" cx="520" cy="-172" rx="60.27" ry="18"/>
<text text-anchor="middle" x="520" y="-167.8" font-family="Times,serif" font-size="14.00">PostsService</text>
</g>
<!-- PostsService&#45;&gt;PostsModule -->
<g id="edge8" class="edge">
<title>PostsService&#45;&gt;PostsModule</title>
<path fill="none" stroke="black" d="M492.12,-188.34C492.12,-198.64 492.12,-210 492.12,-210 492.12,-210 235.09,-210 235.09,-210 235.09,-210 235.09,-219.89 235.09,-219.89"/>
<polygon fill="black" stroke="black" points="231.59,-219.89 235.09,-229.89 238.59,-219.89 231.59,-219.89"/>
</g>
<!-- UsersService -->
<g id="node10" class="node">
<title>UsersService</title>
<ellipse fill="#fdb462" stroke="black" cx="86" cy="-104" rx="61.95" ry="18"/>
<text text-anchor="middle" x="86" y="-99.8" font-family="Times,serif" font-size="14.00">UsersService</text>
</g>
<!-- UsersService&#45;&gt;UsersModule -->
<g id="edge10" class="edge">
<title>UsersService&#45;&gt;UsersModule</title>
<path fill="none" stroke="black" d="M93,-122.22C93,-122.22 93,-143.73 93,-143.73"/>
<polygon fill="black" stroke="black" points="89.5,-143.73 93,-153.73 96.5,-143.73 89.5,-143.73"/>
</g>
</g>
</svg>
